<svg width="402" height="293" viewBox="0 0 402 293" fill="none" xmlns="http://www.w3.org/2000/svg">
<path d="M39.4989 13.9926C40.3192 6.65215 47.5128 1.78818 54.6305 3.76139L384.509 95.2121C390.781 96.9509 394.524 103.373 392.945 109.687L354.267 264.375C352.785 270.301 347.09 274.168 341.036 273.359L27.0192 231.404C20.55 230.54 15.9578 224.663 16.6826 218.177L39.4989 13.9926Z" fill="#52678E"/>
<path d="M18.5605 44.821C18.0615 37.4517 24.2749 31.3854 31.6301 32.0606L372.517 63.3551C378.998 63.9501 383.824 69.6035 383.394 76.0978L372.857 235.2C372.454 241.294 367.537 246.113 361.436 246.394L44.965 260.984C38.4452 261.284 32.8807 256.319 32.4398 249.807L18.5605 44.821Z" fill="#FF7A30"/>
</svg>
